Puss in Boots (2011) 1080p MKV x264 DTS 3D Half-SBS
.
[IMG]http://img252.imageshack.us/img252/7876/pib2012.jpg[/IMG]
.
Verenigde Staten
Avontuur / Animatie
90 minuten

geregisseerd door Chris Miller (I)
met de stemmen van Antonio Banderas, Zach Galifianakis en Salma Hayek

Puss in Boots, ÚÚn van de meest geliefde personages uit het Shrek-universum, gaat over de hilarische en moedige avonturen van Puss (Antonio Banderas) wanneer hij samen met het meesterbrein Humpty Dumpty (Zach Galifianakis) en de straatkat Kitty (Salma Hayek) op zoek gaat naar de befaamde Gans met de Gouden Eieren.

Momenteel te zien in 88 bioscopen
Vanaf 20 maart te huur
Vanaf 4 april te koop op Blu-Ray
. 
http://www.moviemeter.nl/film/75021
.
PLOT
.
A story about the events leading up to the sword fighting cat's meeting with Shrek and his friends. 
. 
http://www.imdb.com/title/tt0448694/
.
INFO
.
NL Vertaling: GeronimoX RQT - REAL Quality Translations
.
INFO MKV
.

Video
ID                               : 1
Format                           : AVC
Format/Info                      : Advanced Video Codec
Format profile                   : High@L4.1
Format settings, CABAC           : Yes
Format settings, ReFrames        : 4 frames
Codec ID                         : V_MPEG4/ISO/AVC
Duration                         : 1h 30mn
Bit rate                         : 10 000 Kbps
Width                            : 1 920 pixels
Height                           : 1 080 pixels
Display aspect ratio             : 16:9
Frame rate                       : 23.976 fps
Color space                      : YUV
Chroma subsampling               : 4:2:0
Bit depth                        : 8 bits
Scan type                        : Progressive
Bits/(Pixel*Frame)               : 0.201
Stream size                      : 6.13 GiB (85%)
Writing library                  : x264 core 120 r2146 bcd41db
Encoding settings                : cabac=1 / ref=3 / deblock=1:0:0 / analyse=0x3:0x113 / me=hex / subme=7 / psy=1 / psy_rd=1.00:0.00 / mixed_ref=1 / me_range=16 / chroma_me=1 / trellis=1 / 8x8dct=1 / cqm=0 / deadzone=21,11 / fast_pskip=1 / chroma_qp_offset=-2 / threads=12 / sliced_threads=0 / nr=0 / decimate=1 / interlaced=0 / bluray_compat=0 / constrained_intra=0 / bframes=3 / b_pyramid=2 / b_adapt=1 / b_bias=0 / direct=1 / weightb=1 / open_gop=0 / weightp=2 / keyint=250 / keyint_min=23 / scenecut=40 / intra_refresh=0 / rc_lookahead=40 / rc=abr / mbtree=1 / bitrate=10000 / ratetol=1.0 / qcomp=0.60 / qpmin=0 / qpmax=69 / qpstep=4 / ip_ratio=1.40 / aq=1:1.00
Language                         : English
Default                          : Yes
Forced                           : No

Audio
ID                               : 2
Format                           : DTS
Format/Info                      : Digital Theater Systems
Codec ID                         : A_DTS
Duration                         : 1h 30mn
Bit rate mode                    : Constant
Bit rate                         : 1 510 Kbps
Channel(s)                       : 6 channels
Channel positions                : Front: L C R, Side: L R, LFE
Sampling rate                    : 48.0 KHz
Bit depth                        : 24 bits
Compression mode                 : Lossy
Stream size                      : 974 MiB (13%)
Language                         : English
Default                          : Yes
Forced                           : No


.
Enjoy
